<svg id="visual" viewBox="0 0 900 600" width="900" height="600" xmlns="http://www.w3.org/2000/svg" xmlns:xlink="http://www.w3.org/1999/xlink" version="1.1"><rect x="0" y="0" width="900" height="600" fill="#001220"></rect><defs><linearGradient id="grad1_0" x1="33.3%" y1="0%" x2="100%" y2="100%"><stop offset="20%" stop-color="#001220" stop-opacity="1"></stop><stop offset="80%" stop-color="#001220" stop-opacity="1"></stop></linearGradient></defs><defs><linearGradient id="grad2_0" x1="0%" y1="0%" x2="66.7%" y2="100%"><stop offset="20%" stop-color="#001220" stop-opacity="1"></stop><stop offset="80%" stop-color="#001220" stop-opacity="1"></stop></linearGradient></defs><g transform="translate(900, 0)"><path d="M0 189.3C-24.8 186.8 -49.7 184.4 -72.4 174.9C-95.2 165.4 -115.9 148.9 -129.4 129.4C-142.9 109.9 -149.2 87.5 -158 65.4C-166.8 43.4 -178 21.7 -189.3 0L0 0Z" fill="#FBAE3C"></path></g><g transform="translate(0, 600)"><path d="M0 -189.3C21.9 -177.6 43.8 -166 64.7 -156.1C85.6 -146.3 105.5 -138.2 125.2 -125.2C144.8 -112.1 164.2 -94.1 174.9 -72.4C185.5 -50.8 187.4 -25.4 189.3 0L0 0Z" fill="#FBAE3C"></path></g></svg>